<svg version="1.1" id="Layer_1" xmlns="http://www.w3.org/2000/svg" xmlns:xlink="http://www.w3.org/1999/xlink" x="0px" y="0px"
	 width="100%" viewBox="0 0 248 213" enable-background="new 0 0 248 213" xml:space="preserve">
<path fill="#010101" opacity="1.000000" stroke="none" 
	d="
M136.000000,214.000000 
	C90.666672,214.000000 45.833340,214.000000 1.000006,214.000000 
	C1.000004,143.000000 1.000004,72.000015 1.000002,1.000015 
	C83.666656,1.000010 166.333313,1.000010 248.999969,1.000005 
	C248.999985,71.999985 248.999985,142.999969 249.000000,213.999969 
	C211.500000,214.000000 174.000000,214.000000 136.000000,214.000000 
M166.020493,97.559418 
	C155.769562,87.306709 145.544907,77.027534 135.254761,66.814346 
	C131.147324,62.737617 127.015854,62.583740 123.080193,66.489349 
	C112.198311,77.288139 101.379768,88.151611 90.618629,99.070755 
	C86.796776,102.948715 86.858521,106.407700 90.752098,110.346420 
	C101.295845,121.012428 111.887604,131.631561 122.526955,142.202225 
	C127.318153,146.962479 130.887604,146.890610 135.765533,142.027802 
	C146.033020,131.792130 156.260971,121.516632 166.474869,111.227432 
	C171.404099,106.261864 171.387207,103.348640 166.020493,97.559418 
z"/>
<path fill="#F4F4F4" opacity="1.000000" stroke="none" 
	d="
M166.283173,97.812332 
	C171.387207,103.348640 171.404099,106.261864 166.474869,111.227432 
	C156.260971,121.516632 146.033020,131.792130 135.765533,142.027802 
	C130.887604,146.890610 127.318153,146.962479 122.526955,142.202225 
	C111.887604,131.631561 101.295845,121.012428 90.752098,110.346420 
	C86.858521,106.407700 86.796776,102.948715 90.618629,99.070755 
	C101.379768,88.151611 112.198311,77.288139 123.080193,66.489349 
	C127.015854,62.583740 131.147324,62.737617 135.254761,66.814346 
	C145.544907,77.027534 155.769562,87.306709 166.283173,97.812332 
M124.315155,131.264175 
	C125.509079,133.050476 126.703003,134.836761 127.588173,136.161118 
	C139.078812,124.688133 149.377808,114.404976 158.871796,104.925575 
	C148.856293,94.897385 138.567444,84.595490 128.408447,74.423615 
	C118.600609,84.208778 108.371826,94.413925 97.894867,104.866669 
	C106.433174,113.398354 115.119301,122.077751 124.315155,131.264175 
z"/>
<path fill="#000000" opacity="1.000000" stroke="none" 
	d="
M124.060287,131.010651 
	C115.119301,122.077751 106.433174,113.398354 97.894867,104.866669 
	C108.371826,94.413925 118.600609,84.208778 128.408447,74.423615 
	C138.567444,84.595490 148.856293,94.897385 158.871796,104.925575 
	C149.377808,114.404976 139.078812,124.688133 127.588173,136.161118 
	C126.703003,134.836761 125.509079,133.050476 124.060287,131.010651 
z"/>
</svg>